<svg width="50" height="50" viewBox="0 0 50 50" fill="none" xmlns="http://www.w3.org/2000/svg">
<circle opacity="0.2" cx="25" cy="25" r="25" fill="#FFD940"/>
<path fill-rule="evenodd" clip-rule="evenodd" d="M25.4999 9.38636C17.1529 9.38636 10.3863 16.153 10.3863 24.5C10.3863 32.847 17.1529 39.6136 25.4999 39.6136C33.847 39.6136 40.6136 32.847 40.6136 24.5C40.6136 16.153 33.847 9.38636 25.4999 9.38636ZM8 24.5C8 14.835 15.835 7 25.4999 7C35.1648 7 43 14.835 43 24.5C43 34.165 35.1648 42 25.4999 42C15.835 42 8 34.165 8 24.5Z" fill="#AD8D0A"/>
<path fill-rule="evenodd" clip-rule="evenodd" d="M41.4088 25.5605H9.59082V23.4393H41.4088V25.5605Z" fill="#AD8D0A"/>
<path fill-rule="evenodd" clip-rule="evenodd" d="M24.439 40.4091V8.59088H26.5602V40.4091H24.439ZM33.1229 24.4999C33.1229 18.7389 31.0512 13.0395 26.9895 9.27115L28.2519 7.91052C32.7639 12.0967 34.979 18.3292 34.979 24.4999C34.979 30.6707 32.7639 36.9033 28.2519 41.0895L26.9895 39.7287C31.0512 35.9604 33.1229 30.261 33.1229 24.4999ZM16.2188 24.5C16.2188 18.3382 18.3616 12.1089 22.7361 7.92055L24.0197 9.26121C20.086 13.0275 18.0748 18.73 18.0748 24.5C18.0748 30.27 20.0861 35.9726 24.0198 39.7388L22.7362 41.0794C18.3617 36.8911 16.2188 30.6619 16.2188 24.5Z" fill="#AD8D0A"/>
<path fill-rule="evenodd" clip-rule="evenodd" d="M25.4998 15.1083C31.2518 15.1083 37.1011 16.1719 41.0659 18.3868C41.5134 18.6368 41.6736 19.2021 41.4236 19.6496C41.1738 20.097 40.6082 20.2572 40.1609 20.0072C36.5816 18.0078 31.0893 16.9643 25.4998 16.9643C19.9103 16.9643 14.418 18.0078 10.8388 20.0072C10.3913 20.2572 9.82596 20.097 9.576 19.6496C9.32607 19.2021 9.48617 18.6368 9.93364 18.3868C13.8987 16.1719 19.7478 15.1083 25.4998 15.1083ZM25.4998 33.3825C31.2518 33.3825 37.1011 32.3187 41.0659 30.1039C41.5134 29.854 41.6736 29.2886 41.4236 28.8412C41.1738 28.3937 40.6082 28.2336 40.1609 28.4835C36.5816 30.4829 31.0893 31.5265 25.4998 31.5265C19.9103 31.5265 14.418 30.4829 10.8388 28.4836C10.3913 28.2336 9.82596 28.3937 9.576 28.8412C9.32607 29.2886 9.48617 29.854 9.93364 30.1039C13.8987 32.3187 19.7478 33.3825 25.4998 33.3825Z" fill="#AD8D0A"/>
<circle cx="17.375" cy="36.375" r="5.75" fill="#FFF7D9"/>
<path d="M17.375 45C22.1063 45 26 41.1084 26 36.3796C26 31.6508 22.1063 27.75 17.375 27.75C12.6437 27.75 8.75 31.6508 8.75 36.3796C8.75 41.1084 12.6437 45 17.375 45ZM17.3658 41.2924C17.1909 41.2924 17.0528 41.1728 17.0528 40.9796V40.2896C15.8194 40.1976 14.8713 39.4984 14.6503 38.4772C14.6319 38.4036 14.6227 38.3208 14.6227 38.2472C14.6227 38.0172 14.77 37.87 14.9725 37.87C15.175 37.87 15.2947 37.9804 15.3499 38.2012C15.4696 38.9464 16.1139 39.4892 17.0528 39.5812V36.6464L16.9424 36.6188C15.5156 36.2784 14.7884 35.6436 14.7884 34.6224C14.7884 33.4908 15.7733 32.6812 17.0528 32.5708V31.9544C17.0528 31.7612 17.1817 31.6416 17.3658 31.6416C17.5499 31.6416 17.688 31.7704 17.688 31.9544V32.5708C18.8478 32.6628 19.7407 33.3344 19.9524 34.2452C19.9616 34.328 19.98 34.4016 19.98 34.4844C19.98 34.7052 19.8327 34.8524 19.6118 34.8524C19.4093 34.8524 19.2988 34.7328 19.2436 34.5212C19.0963 33.8496 18.5072 33.3712 17.688 33.2884V36.0392L17.8997 36.0852C19.3909 36.398 20.1181 37.0604 20.1181 38.1552C20.1181 39.3696 19.0963 40.1976 17.688 40.2988V40.9796C17.688 41.1636 17.5499 41.2924 17.3658 41.2924ZM17.0528 35.8828V33.2884C16.1784 33.3804 15.5432 33.9048 15.5432 34.5948C15.5432 35.2388 16.0311 35.616 17.0068 35.8736L17.0528 35.8828ZM17.688 36.7936V39.5812C18.7373 39.5076 19.3633 38.9464 19.3633 38.1828C19.3633 37.5112 18.9306 37.0972 17.8721 36.8488L17.688 36.7936Z" fill="#AD8D0A"/>
</svg>
