<svg width="50" height="50" viewBox="0 0 50 50" fill="none" xmlns="http://www.w3.org/2000/svg">
<circle opacity="0.2" cx="25" cy="25" r="25" fill="#ED6319"/>
<path fill-rule="evenodd" clip-rule="evenodd" d="M17.446 41.1791C14.3714 39.7408 11.7713 37.4503 9.95339 34.6109C9.74085 34.2808 9.29926 34.1838 8.96703 34.3963C8.63481 34.6089 8.53782 35.0505 8.75036 35.3827C10.7148 38.447 13.5191 40.9191 16.8414 42.4729C17.1984 42.64 17.6234 42.4873 17.7906 42.1304C17.9577 41.7734 17.803 41.3462 17.446 41.1791V41.1791Z" fill="#ED6319"/>
<path fill-rule="evenodd" clip-rule="evenodd" d="M7.62196 20.8762C8.6372 16.5821 11.2063 12.8863 14.6998 10.4122C15.0217 10.1852 15.098 9.73949 14.869 9.41758C14.642 9.09568 14.1963 9.01933 13.8744 9.24631C10.1002 11.9186 7.32894 15.9094 6.23115 20.5461C6.14036 20.9299 6.37973 21.3158 6.76354 21.4066C7.14529 21.4974 7.53116 21.2601 7.62196 20.8762Z" fill="#ED6319"/>
<path fill-rule="evenodd" clip-rule="evenodd" d="M32.5555 8.8148C35.1205 10.0158 37.3552 11.8089 39.0803 14.0169C39.3238 14.3285 39.7737 14.3842 40.0832 14.1407C40.3948 13.8972 40.4505 13.4494 40.207 13.1378C38.3437 10.7524 35.9314 8.81686 33.1601 7.52098C32.8031 7.35384 32.3781 7.50654 32.2109 7.86352C32.0438 8.22051 32.1985 8.64765 32.5555 8.8148V8.8148Z" fill="#ED6319"/>
<path fill-rule="evenodd" clip-rule="evenodd" d="M40.1114 34.512C38.8547 36.5012 37.2184 38.2243 35.3014 39.5821C34.9795 39.809 34.9031 40.2548 35.1322 40.5767C35.3592 40.8986 35.8049 40.9749 36.1268 40.7479C38.1965 39.2828 39.9629 37.4216 41.3186 35.2755C41.5291 34.9412 41.43 34.4996 41.0957 34.2892C40.7635 34.0787 40.3219 34.1798 40.1114 34.512V34.512Z" fill="#ED6319"/>
<path fill-rule="evenodd" clip-rule="evenodd" d="M25.0002 9.2854C23.029 9.2854 21.4287 10.8857 21.4287 12.8569C21.4287 14.828 23.029 16.4283 25.0002 16.4283C26.9713 16.4283 28.5716 14.828 28.5716 12.8569C28.5716 10.8857 26.9713 9.2854 25.0002 9.2854V9.2854ZM25.0002 10.714C26.1827 10.714 27.143 11.6743 27.143 12.8569C27.143 14.0394 26.1827 14.9997 25.0002 14.9997C23.8176 14.9997 22.8573 14.0394 22.8573 12.8569C22.8573 11.6743 23.8176 10.714 25.0002 10.714Z" fill="#ED6319"/>
<path fill-rule="evenodd" clip-rule="evenodd" d="M25.7147 7.14263V5.71405C25.7147 5.31982 25.3947 4.99976 25.0004 4.99976C24.6061 4.99976 24.2861 5.31982 24.2861 5.71405V7.14263C24.2861 7.53686 24.6061 7.85692 25.0004 7.85692C25.3947 7.85692 25.7147 7.53686 25.7147 7.14263V7.14263Z" fill="#ED6319"/>
<path fill-rule="evenodd" clip-rule="evenodd" d="M21.4648 8.31105L20.4546 7.30088C20.1758 7.02212 19.7232 7.02208 19.4444 7.30088C19.1656 7.57969 19.1657 8.03228 19.4444 8.31105L20.4546 9.32121C20.7334 9.59997 21.186 9.60001 21.4648 9.32121C21.7436 9.0424 21.7435 8.58981 21.4648 8.31105V8.31105Z" fill="#ED6319"/>
<path fill-rule="evenodd" clip-rule="evenodd" d="M19.2864 12.1427H17.8578C17.4636 12.1427 17.1436 12.4627 17.1436 12.857C17.1436 13.2513 17.4636 13.5713 17.8578 13.5713H19.2864C19.6807 13.5713 20.0007 13.2513 20.0007 12.857C20.0007 12.4627 19.6807 12.1427 19.2864 12.1427Z" fill="#ED6319"/>
<path fill-rule="evenodd" clip-rule="evenodd" d="M20.4546 16.3926L19.4444 17.4027C19.1657 17.6815 19.1656 18.1341 19.4444 18.4129C19.7232 18.6917 20.1758 18.6916 20.4546 18.4129L21.4648 17.4027C21.7435 17.124 21.7436 16.6714 21.4648 16.3926C21.186 16.1138 20.7334 16.1138 20.4546 16.3926Z" fill="#ED6319"/>
<path fill-rule="evenodd" clip-rule="evenodd" d="M25.7147 19.9998V18.5712C25.7147 18.177 25.3947 17.8569 25.0004 17.8569C24.6061 17.8569 24.2861 18.177 24.2861 18.5712V19.9998C24.2861 20.394 24.6061 20.7141 25.0004 20.7141C25.3947 20.7141 25.7147 20.394 25.7147 19.9998Z" fill="#ED6319"/>
<path fill-rule="evenodd" clip-rule="evenodd" d="M30.5556 17.4025L29.5454 16.3923C29.2667 16.1136 28.8141 16.1135 28.5353 16.3923C28.2565 16.6711 28.2565 17.1237 28.5353 17.4025L29.5454 18.4126C29.8242 18.6914 30.2768 18.6914 30.5556 18.4126C30.8344 18.1338 30.8343 17.6812 30.5556 17.4025V17.4025Z" fill="#ED6319"/>
<path fill-rule="evenodd" clip-rule="evenodd" d="M32.1429 12.1427H30.7143C30.3201 12.1427 30 12.4627 30 12.857C30 13.2513 30.3201 13.5713 30.7143 13.5713H32.1429C32.5371 13.5713 32.8572 13.2513 32.8572 12.857C32.8572 12.4627 32.5371 12.1427 32.1429 12.1427Z" fill="#ED6319"/>
<path fill-rule="evenodd" clip-rule="evenodd" d="M29.5454 7.30113L28.5353 8.31129C28.2565 8.59005 28.2565 9.04265 28.5353 9.32145C28.8141 9.60026 29.2667 9.60021 29.5454 9.32145L30.5556 8.31129C30.8343 8.03253 30.8344 7.57993 30.5556 7.30113C30.2768 7.02232 29.8242 7.02237 29.5454 7.30113Z" fill="#ED6319"/>
<path fill-rule="evenodd" clip-rule="evenodd" d="M37.1433 19.6786C38.0869 18.5514 39.7441 18.225 41.0691 18.9807C42.3948 19.7372 42.9405 21.3172 42.4319 22.6915C43.8912 22.9393 45.0005 24.2015 45.0005 25.7143C45.0005 27.2272 43.8912 28.4894 42.4319 28.7372C42.9405 30.1115 42.3948 31.6915 41.0691 32.448C39.7441 33.2037 38.0869 32.8773 37.1433 31.7501C36.1998 32.8773 34.5426 33.2037 33.2176 32.448C31.8919 31.6915 31.3461 30.1115 31.8547 28.7372C30.3954 28.4894 29.2861 27.2272 29.2861 25.7143C29.2861 24.2015 30.3954 22.9393 31.8547 22.6915C31.3461 21.3172 31.8919 19.7372 33.2176 18.9807C34.5426 18.225 36.1998 18.5514 37.1433 19.6786V19.6786ZM35.0947 27.7058L33.9262 28.3722C33.6733 28.5165 33.4633 28.7237 33.3169 28.9737C32.8604 29.7558 33.1347 30.7558 33.9262 31.2072C34.724 31.663 35.7469 31.3951 36.2076 30.6058C36.3526 30.3579 36.429 30.0765 36.429 29.7901V28.4815C35.914 28.3486 35.4547 28.0758 35.0947 27.7058V27.7058ZM39.1919 27.7058C38.8319 28.0758 38.3726 28.3486 37.8576 28.4815V29.7901C37.8576 30.0765 37.9341 30.3579 38.0791 30.6058C38.5398 31.3951 39.5626 31.663 40.3605 31.2072C41.1519 30.7558 41.4262 29.7558 40.9698 28.9737C40.8234 28.7237 40.6134 28.5165 40.3605 28.3722L39.1919 27.7058ZM34.3862 24.9636L33.2176 24.2972C32.9633 24.1522 32.6747 24.0758 32.3812 24.0758C31.464 24.0758 30.7147 24.8079 30.7147 25.7143C30.7147 26.6208 31.464 27.3529 32.3812 27.3529C32.6747 27.3529 32.9633 27.2765 33.2176 27.1315L34.3862 26.4651C34.3212 26.2258 34.2862 25.9743 34.2862 25.7143C34.2862 25.4543 34.3212 25.2029 34.3862 24.9636ZM39.9005 26.4651L41.0691 27.1315C41.3234 27.2765 41.6119 27.3529 41.9055 27.3529C42.8227 27.3529 43.572 26.6208 43.572 25.7143C43.572 24.8079 42.8227 24.0758 41.9055 24.0758C41.6298 24.0758 41.3591 24.1429 41.1169 24.2708L41.0691 24.2972L39.9005 24.9636C39.9655 25.2029 40.0005 25.4543 40.0005 25.7143C40.0005 25.9743 39.9655 26.2258 39.9005 26.4651ZM37.1433 24.2858C37.9319 24.2858 38.5719 24.9258 38.5719 25.7143C38.5719 26.5029 37.9319 27.1429 37.1433 27.1429C36.3548 27.1429 35.7148 26.5029 35.7148 25.7143C35.7148 24.9258 36.3548 24.2858 37.1433 24.2858ZM39.1919 23.7229L40.3605 23.0565C40.6134 22.9122 40.8234 22.705 40.9698 22.455C41.4262 21.6729 41.1519 20.6729 40.3605 20.2214C39.5626 19.7657 38.5398 20.0336 38.0791 20.8229C37.9433 21.055 37.8676 21.3172 37.8583 21.585L37.8576 21.6386V22.9472C38.3726 23.08 38.8319 23.3529 39.1919 23.7229ZM36.429 22.9472V21.6386C36.429 21.3522 36.3526 21.0707 36.2076 20.8229C35.7469 20.0336 34.724 19.7657 33.9262 20.2214C33.1347 20.6729 32.8604 21.6729 33.3169 22.455C33.454 22.6893 33.6469 22.8857 33.879 23.0286L33.9262 23.0565L35.0947 23.7229C35.4547 23.3529 35.914 23.08 36.429 22.9472V22.9472Z" fill="#ED6319"/>
<path fill-rule="evenodd" clip-rule="evenodd" d="M12.8573 32.8568H12.143C11.9538 32.8568 11.7716 32.7818 11.638 32.6475L5.20942 26.2189C5.00514 26.0146 4.94371 25.7075 5.05442 25.4403C5.16514 25.1739 5.42585 24.9996 5.71443 24.9996H7.8573V22.8567C7.8573 22.4624 8.1773 22.1424 8.57159 22.1424H10.0002V18.571C10.0002 18.3231 10.128 18.0938 10.3387 17.9631C10.5495 17.8331 10.8123 17.8217 11.0337 17.9324L13.5716 19.201L16.1095 17.9324C16.3309 17.8217 16.5938 17.8331 16.8045 17.9631C17.0152 18.0938 17.1431 18.3231 17.1431 18.571V22.1424H18.5717C18.966 22.1424 19.286 22.4624 19.286 22.8567V24.9996H21.4288C21.7174 24.9996 21.9781 25.1739 22.0888 25.4403C22.1995 25.7075 22.1381 26.0146 21.9338 26.2189L15.5052 32.6475C15.3716 32.7818 15.1895 32.8568 15.0002 32.8568H14.2859V35.714C14.2859 36.1083 13.9659 36.4283 13.5716 36.4283C13.1773 36.4283 12.8573 36.1083 12.8573 35.714V32.8568ZM14.2859 31.4282H14.7045L19.7045 26.4282H18.5717C18.1774 26.4282 17.8574 26.1082 17.8574 25.7139V23.571H16.4288C16.0345 23.571 15.7145 23.251 15.7145 22.8567V19.7267L13.8909 20.6381C13.6902 20.7389 13.4531 20.7389 13.2523 20.6381L11.4288 19.7267V22.8567C11.4288 23.251 11.1088 23.571 10.7145 23.571H9.28588V25.7139C9.28588 26.1082 8.96588 26.4282 8.57159 26.4282H7.43872L12.4388 31.4282H12.8573V29.5811L10.9237 27.6475C10.6452 27.3689 10.6452 26.9161 10.9237 26.6375C11.2023 26.3589 11.6552 26.3589 11.9338 26.6375L12.8573 27.5611V24.2853C12.8573 23.891 13.1773 23.571 13.5716 23.571C13.9659 23.571 14.2859 23.891 14.2859 24.2853V27.5611L15.2095 26.6375C15.4881 26.3589 15.9409 26.3589 16.2195 26.6375C16.4981 26.9161 16.4981 27.3689 16.2195 27.6475L14.2859 29.5811V31.4282Z" fill="#ED6319"/>
<path fill-rule="evenodd" clip-rule="evenodd" d="M22.8573 34.8271V32.8568C22.8573 32.4622 23.1767 32.1422 23.5711 32.1422H26.4283C26.8234 32.1422 27.1427 32.4622 27.1427 32.8568V34.8271L28.9256 33.7872C29.0902 33.6915 29.2868 33.6651 29.4709 33.7146C29.6544 33.7634 29.8112 33.8842 29.9059 34.0498L31.3348 36.5499C31.5287 36.8904 31.4131 37.3239 31.0742 37.5212L29.275 38.571L31.0742 39.6208C31.4131 39.8181 31.5287 40.2516 31.3348 40.592L29.9059 43.0922C29.8112 43.2578 29.6544 43.3785 29.4709 43.4273C29.2868 43.4768 29.0902 43.4504 28.9256 43.3548L27.1427 42.3149V44.2851C27.1427 44.6797 26.8234 44.9997 26.4283 44.9997H23.5711C23.1767 44.9997 22.8573 44.6797 22.8573 44.2851V42.3149L21.0744 43.3548C20.9099 43.4504 20.7133 43.4768 20.5291 43.4273C20.3456 43.3785 20.1889 43.2578 20.0942 43.0922L18.6653 40.592C18.4713 40.2516 18.5869 39.8181 18.9259 39.6208L20.7251 38.571L18.9259 37.5212C18.5869 37.3239 18.4713 36.8904 18.6653 36.5499L20.0942 34.0498C20.1889 33.8842 20.3456 33.7634 20.5291 33.7146C20.7133 33.6651 20.9099 33.6915 21.0744 33.7872L22.8573 34.8271ZM25.7145 33.5708H24.2856V36.0709C24.2856 36.3269 24.1491 36.5631 23.927 36.6904C23.7056 36.8178 23.4327 36.8171 23.2113 36.6878L20.9771 35.3846L20.2568 36.6443L22.5027 37.954C22.7221 38.082 22.8573 38.3169 22.8573 38.571C22.8573 38.825 22.7221 39.0599 22.5027 39.1879L20.2568 40.4977L20.9771 41.7573L23.2113 40.4541C23.4327 40.3248 23.7056 40.3241 23.927 40.4515C24.1491 40.5788 24.2856 40.8151 24.2856 41.0711V43.5712H25.7145V41.0711C25.7145 40.8151 25.851 40.5788 26.073 40.4515C26.2944 40.3241 26.5674 40.3248 26.7888 40.4541L29.0229 41.7573L29.7432 40.4977L27.4974 39.1879C27.2779 39.0599 27.1427 38.825 27.1427 38.571C27.1427 38.3169 27.2779 38.082 27.4974 37.954L29.7432 36.6443L29.0229 35.3846L26.7888 36.6878C26.5674 36.8171 26.2944 36.8178 26.073 36.6904C25.851 36.5631 25.7145 36.3269 25.7145 36.0709V33.5708Z" fill="#ED6319"/>
</svg>
